<svg width="92" height="80" viewBox="0 0 92 80" fill="none" xmlns="http://www.w3.org/2000/svg">
<path d="M88.4062 14.4485H71.2102V4.36805C71.2102 2.37352 69.593 0.7743 67.6164 0.7743H24.4016C22.407 0.7743 20.8078 2.39149 20.8078 4.36805V14.4485H3.59375C1.59922 14.4485 0 16.0657 0 18.0423V75.6321C0 77.6266 1.61719 79.2259 3.59375 79.2259H88.4062C90.4008 79.2259 92 77.6087 92 75.6321C92 43.8095 92 19.6595 92 18.0423C92 16.0477 90.3828 14.4485 88.4062 14.4485ZM27.9953 7.9618H63.9867V14.4485H27.9953V7.9618ZM7.20547 21.636H84.8125V29.8477L46 43.0368L7.20547 29.8657V21.636ZM7.20547 72.0384V37.4665L44.85 50.2423C45.6047 50.4938 46.4133 50.4938 47.168 50.2423L84.8125 37.4665V72.0384H7.20547Z" fill="#2183AA"/>
</svg>
