<svg width="32" height="32" viewBox="0 0 32 32" fill="none" xmlns="http://www.w3.org/2000/svg">
<path d="M14.9394 8.46066L16 9.52132L17.0607 8.46066L18.2607 7.26066C19.3826 6.13875 20.9024 5.5 22.5 5.5C24.0916 5.5 25.5921 6.13278 26.7034 7.32348L26.7211 7.34238L26.7394 7.36066C29.1536 9.77487 29.1536 13.6251 26.7393 16.0393L26.7349 16.0438L16 26.8697L5.26514 16.0438L5.26515 16.0438L5.26067 16.0393C2.84646 13.6251 2.84646 9.77487 5.26067 7.36066L5.36067 7.26066C7.67185 4.94948 11.5081 4.94937 13.8215 7.34253L13.8304 7.35167L13.8394 7.36066L14.9394 8.46066Z" stroke="white" stroke-width="3"/>
</svg>
