<svg width="34" height="32" viewBox="0 0 34 32" fill="none" xmlns="http://www.w3.org/2000/svg">
<path d="M16 2.66675C8.64802 2.66675 2.66669 7.45208 2.66669 13.3334C2.66669 17.2107 5.19735 20.6881 9.33335 22.5787V29.3334L16.4534 23.9934C23.596 23.8027 29.3334 19.0934 29.3334 13.3334C29.3334 7.45208 23.352 2.66675 16 2.66675ZM16 21.3334H15.556L12 24.0001V20.7774L11.1454 20.4481C7.56002 19.0681 5.33335 16.3414 5.33335 13.3334C5.33335 8.92141 10.1187 5.33341 16 5.33341C21.8814 5.33341 26.6667 8.92141 26.6667 13.3334C26.6667 17.7454 21.8814 21.3334 16 21.3334Z" fill="white"/>
<circle cx="27" cy="23" r="6" fill="#597E9D" stroke="white" stroke-width="2"/>
</svg>
