<svg width="20" height="20" viewBox="0 0 20 20" fill="none" xmlns="http://www.w3.org/2000/svg">
<path d="M14.1892 19.1667C14.4326 19.1681 14.6739 19.121 14.899 19.0281C15.1241 18.9353 15.3284 18.7985 15.5 18.6258L17.9842 16.1417C18.1549 15.9699 18.2507 15.7376 18.2507 15.4954C18.2507 15.2533 18.1549 15.0209 17.9842 14.8492L14.3175 11.1825C14.1457 11.0118 13.9134 10.9159 13.6712 10.9159C13.4291 10.9159 13.1967 11.0118 13.025 11.1825L11.5583 12.64C10.5429 12.3693 9.60245 11.8708 8.80833 11.1825C8.12186 10.3871 7.62366 9.44712 7.35083 8.43251L8.80833 6.96584C8.97906 6.79409 9.07489 6.56176 9.07489 6.31959C9.07489 6.07742 8.97906 5.84509 8.80833 5.67334L5.14166 2.00667C4.96991 1.83594 4.73758 1.74011 4.49541 1.74011C4.25324 1.74011 4.02091 1.83594 3.84916 2.00667L1.37416 4.50001C1.20149 4.67165 1.06474 4.87596 0.971881 5.10102C0.879024 5.32608 0.831924 5.56738 0.83333 5.81084C0.916493 9.33294 2.3239 12.6943 4.775 15.225C7.30566 17.6761 10.6671 19.0835 14.1892 19.1667ZM4.5 3.95917L6.87416 6.33334L5.69166 7.51584C5.57967 7.62075 5.4958 7.7521 5.44775 7.89784C5.3997 8.04359 5.38901 8.19906 5.41666 8.35001C5.75929 9.88118 6.48468 11.3004 7.525 12.475C8.69866 13.5167 10.1183 14.2422 11.65 14.5833C11.7987 14.6144 11.9527 14.6081 12.0983 14.5649C12.2439 14.5217 12.3765 14.443 12.4842 14.3358L13.6667 13.1258L16.0408 15.5L14.2075 17.3333C11.1676 17.2551 8.26704 16.0419 6.07666 13.9325C3.96183 11.7412 2.74514 8.83686 2.66666 5.79251L4.5 3.95917ZM17.3333 9.08334H19.1667C19.1904 7.99342 18.9933 6.90998 18.5871 5.8983C18.1809 4.88662 17.5741 3.96765 16.8032 3.19678C16.0324 2.42591 15.1134 1.81909 14.1017 1.41291C13.09 1.00672 12.0066 0.809571 10.9167 0.833341V2.66667C11.7672 2.63725 12.6148 2.7831 13.4066 3.09516C14.1984 3.40721 14.9176 3.8788 15.5194 4.48061C16.1212 5.08242 16.5928 5.80159 16.9049 6.5934C17.2169 7.38522 17.3628 8.23276 17.3333 9.08334Z" fill="white"/>
</svg>
