<svg width="32" height="32" viewBox="0 0 32 32" fill="none" xmlns="http://www.w3.org/2000/svg">
<path fill-rule="evenodd" clip-rule="evenodd" d="M21.3333 11.9998C21.3333 13.4143 20.7714 14.7709 19.7712 15.7711C18.771 16.7713 17.4144 17.3332 16 17.3332C14.5855 17.3332 13.2289 16.7713 12.2287 15.7711C11.2285 14.7709 10.6666 13.4143 10.6666 11.9998C10.6666 10.5853 11.2285 9.22879 12.2287 8.2286C13.2289 7.22841 14.5855 6.6665 16 6.6665C17.4144 6.6665 18.771 7.22841 19.7712 8.2286C20.7714 9.22879 21.3333 10.5853 21.3333 11.9998ZM18.6666 11.9998C18.6666 12.7071 18.3857 13.3854 17.8856 13.8855C17.3855 14.3856 16.7072 14.6665 16 14.6665C15.2927 14.6665 14.6144 14.3856 14.1143 13.8855C13.6142 13.3854 13.3333 12.7071 13.3333 11.9998C13.3333 11.2926 13.6142 10.6143 14.1143 10.1142C14.6144 9.61412 15.2927 9.33317 16 9.33317C16.7072 9.33317 17.3855 9.61412 17.8856 10.1142C18.3857 10.6143 18.6666 11.2926 18.6666 11.9998Z" fill="white"/>
<path fill-rule="evenodd" clip-rule="evenodd" d="M16 1.33325C7.89998 1.33325 1.33331 7.89992 1.33331 15.9999C1.33331 24.0999 7.89998 30.6666 16 30.6666C24.1 30.6666 30.6666 24.0999 30.6666 15.9999C30.6666 7.89992 24.1 1.33325 16 1.33325ZM3.99998 15.9999C3.99998 18.7866 4.95065 21.3519 6.54398 23.3893C7.66295 21.9198 9.10651 20.7289 10.7619 19.9097C12.4173 19.0904 14.2396 18.665 16.0866 18.6666C17.9097 18.6649 19.7092 19.0793 21.3479 19.8783C22.9866 20.6773 24.4213 21.8398 25.5426 23.2773C26.6979 21.7621 27.4758 19.9935 27.8118 18.118C28.1479 16.2425 28.0326 14.314 27.4753 12.4919C26.9181 10.6698 25.9349 9.00665 24.6073 7.63997C23.2796 6.27329 21.6456 5.2424 19.8405 4.6326C18.0353 4.0228 16.1109 3.85161 14.2265 4.13322C12.342 4.41482 10.5517 5.14111 9.00367 6.25199C7.45564 7.36287 6.19439 8.82641 5.32429 10.5215C4.45418 12.2166 4.00022 14.0945 3.99998 15.9999ZM16 27.9999C13.2452 28.0041 10.5737 27.0564 8.43731 25.3173C9.29722 24.0862 10.4418 23.0811 11.7736 22.3875C13.1054 21.6939 14.585 21.3322 16.0866 21.3333C17.5695 21.3321 19.0313 21.6847 20.3505 22.3618C21.6698 23.039 22.8085 24.0211 23.672 25.2266C21.519 27.0222 18.8034 28.0039 16 27.9999Z" fill="white"/>
</svg>
