<svg width="22" height="22" viewBox="0 0 22 22" fill="none" xmlns="http://www.w3.org/2000/svg">
<path d="M20.6616 5.88496C20.5527 5.44992 20.331 5.05132 20.0187 4.72941C19.7065 4.40751 19.3148 4.17371 18.8833 4.05163C17.3066 3.66663 10.9999 3.66663 10.9999 3.66663C10.9999 3.66663 4.69328 3.66663 3.11662 4.08829C2.68509 4.21038 2.29343 4.44418 1.98118 4.76608C1.66894 5.08798 1.44717 5.48658 1.33828 5.92163C1.04973 7.52172 0.908582 9.14491 0.916616 10.7708C0.90633 12.4089 1.04749 14.0445 1.33828 15.6566C1.45833 16.0782 1.68506 16.4616 1.99658 16.7699C2.3081 17.0782 2.69387 17.301 3.11662 17.4166C4.69328 17.8383 10.9999 17.8383 10.9999 17.8383C10.9999 17.8383 17.3066 17.8383 18.8833 17.4166C19.3148 17.2945 19.7065 17.0607 20.0187 16.7388C20.331 16.4169 20.5527 16.0183 20.6616 15.5833C20.9479 13.9952 21.0891 12.3844 21.0833 10.7708C21.0936 9.13267 20.9524 7.4971 20.6616 5.88496V5.88496Z" stroke="white" stroke-width="1.4" stroke-linecap="round" stroke-linejoin="round"/>
<path d="M8.9375 13.7682L14.2083 10.7707L8.9375 7.77319V13.7682Z" stroke="white" stroke-width="1.4" stroke-linecap="round" stroke-linejoin="round"/>
</svg>
