<svg width="18" height="17" viewBox="0 0 18 17" fill="none" xmlns="http://www.w3.org/2000/svg">
<path d="M2.33337 11.3333L7.01004 11.3333L6.07421 14.1391C5.90587 14.6458 5.99087 15.2075 6.30337 15.6408C6.61587 16.0741 7.12254 16.3333 7.65671 16.3333L9.00004 16.3333C9.24754 16.3333 9.48171 16.2233 9.64087 16.0333L13.5575 11.3333L15.6667 11.3333C16.5859 11.3333 17.3334 10.5858 17.3334 9.66665L17.3334 2.16665C17.3334 1.24748 16.5859 0.499979 15.6667 0.499979L4.57754 0.499978C4.23847 0.501103 3.90772 0.605111 3.62903 0.798247C3.35033 0.991384 3.13682 1.26455 3.01671 1.58164L0.719209 7.70748C0.684325 7.80104 0.666543 7.90012 0.666709 7.99998L0.666709 9.66664C0.666708 10.5858 1.41421 11.3333 2.33337 11.3333ZM15.6667 9.66665L14 9.66665L14 2.16665L15.6667 2.16665L15.6667 9.66665ZM2.33337 8.15081L4.57754 2.16664L12.3334 2.16665L12.3334 10.1983L8.61004 14.6666L7.65504 14.6666L8.95671 10.7641C8.99896 10.6389 9.01075 10.5054 8.99109 10.3746C8.97143 10.2439 8.92089 10.1197 8.84366 10.0124C8.76642 9.90515 8.66473 9.81782 8.547 9.75768C8.42927 9.69754 8.29891 9.66633 8.16671 9.66665L2.33337 9.66664L2.33337 8.15081Z" fill="#8E8E93"/>
</svg>
