<svg width="100" height="100" viewBox="0 0 100 100" fill="none" xmlns="http://www.w3.org/2000/svg">
<g id="avatar 1">
<g id="Layer 3">
<path id="Vector" d="M65.625 29.6875V41.7031C65.6225 45.992 63.9398 50.1091 60.9375 53.1719C58.3473 55.8639 54.8514 57.5005 51.125 57.7656C48.9141 57.9306 46.6935 57.62 44.6127 56.8545C42.532 56.089 40.6394 54.8866 39.0625 53.3281C39.0313 53.2969 38.9844 53.2656 38.9531 53.2344C37.5 51.7854 36.3474 50.0635 35.5618 48.1678C34.7761 46.272 34.3728 44.2396 34.375 42.1875V28.125C34.375 26.8818 34.8689 25.6895 35.7479 24.8104C36.627 23.9314 37.8193 23.4375 39.0625 23.4375H59.375C61.0326 23.4375 62.6223 24.096 63.7944 25.2681C64.9665 26.4402 65.625 28.0299 65.625 29.6875Z" fill="#FFBCAB"/>
<path id="Vector_2" d="M42.1875 53.125H57.8125V70.3125H42.1875V53.125Z" fill="#FFAC96"/>
<path id="Vector_3" d="M54.6875 42.1875H45.3125C43.6549 42.1875 42.0652 42.846 40.8931 44.0181C39.721 45.1902 39.0625 46.7799 39.0625 48.4375V53.3328C40.6401 54.89 42.5329 56.0913 44.6135 56.8559C46.6942 57.6205 48.9145 57.9307 51.125 57.7656C54.8496 57.4998 58.3444 55.8665 60.9375 53.1797V48.4375C60.9375 46.7799 60.279 45.1902 59.1069 44.0181C57.9348 42.846 56.3451 42.1875 54.6875 42.1875Z" fill="#231F20"/>
<path id="Vector_4" d="M65.625 29.6875V31.25H68.75C69.3113 31.2544 69.8671 31.3603 70.3906 31.5625L71.0938 21.0328C71.1964 19.5355 70.9894 18.0331 70.4857 16.6194C69.982 15.2056 69.1924 13.9108 68.1662 12.8156C67.1399 11.7205 65.8991 10.8485 64.521 10.2542C63.1429 9.65979 61.6571 9.35574 60.1563 9.36096L58.1875 9.37503C57.0206 7.90955 55.5375 6.72676 53.8491 5.91506C52.1608 5.10335 50.3108 4.68372 48.4375 4.68753H26.5625C26.5611 7.15022 27.0451 9.58904 27.9868 11.8645C28.9286 14.14 30.3097 16.2076 32.051 17.949C33.7924 19.6904 35.86 21.0714 38.1355 22.0132C40.411 22.955 42.8498 23.439 45.3125 23.4375H59.375C61.0326 23.4375 62.6223 24.096 63.7944 25.2681C64.9665 26.4402 65.625 28.0299 65.625 29.6875Z" fill="#231F20"/>
<path id="Vector_5" d="M45.3143 23.4375C42.3366 23.441 39.4011 22.734 36.7515 21.3752C34.1019 20.0164 31.8147 18.0451 30.0799 15.625C29.1378 17.2463 28.7076 19.1143 28.8455 20.9844L29.5955 31.5625C30.1232 31.3557 30.685 31.2497 31.2518 31.25H34.3768V28.125C34.3768 26.8818 34.8706 25.6895 35.7497 24.8104C36.6288 23.9314 37.8211 23.4375 39.0643 23.4375H45.3143Z" fill="#231F20"/>
<path id="Vector_6" d="M62.5 62.5V73.4375L50 67.1875L37.5 73.4375V62.5L31.25 63.9703V95.3125H68.75V63.9703L62.5 62.5Z" fill="#FFCD00"/>
<path id="Vector_7" d="M65.625 63.2361V95.3126H68.75V63.9705L65.625 63.2361Z" fill="#FFCD00"/>
<path id="Vector_8" d="M34.375 63.2361V95.3126H31.25V63.9705L34.375 63.2361Z" fill="#FFCD00"/>
<path id="Vector_9" d="M20.575 66.4829C17.8325 67.128 15.3883 68.6808 13.6389 70.8894C11.8896 73.0979 10.9376 75.8326 10.9375 78.65V95.3125H25V65.4407L20.575 66.4829Z" fill="#FFCD00"/>
<path id="Vector_10" d="M68.75 63.9705V95.3126H75V65.4408L68.75 63.9705Z" fill="#F3F9FF"/>
<path id="Vector_11" d="M25 65.4408V95.3126H31.25V63.9705L25 65.4408Z" fill="#F3F9FF"/>
<path id="Vector_12" d="M79.425 66.4829L75 65.4407V95.3125H89.0625V78.65C89.0624 75.8326 88.1104 73.0979 86.3611 70.8894C84.6117 68.6808 82.1675 67.128 79.425 66.4829Z" fill="#FFCD00"/>
<path id="Vector_13" d="M62.5 62.5V60.9375L50 67.1875L62.5 73.4375V62.5Z" fill="#F3F9FF"/>
<path id="Vector_14" d="M50 67.1875L37.5 60.9375V62.5V73.4375L50 67.1875Z" fill="#F3F9FF"/>
<path id="Vector_15" d="M65.625 31.25V40.625H68.75C69.8466 40.6251 70.9084 40.2401 71.7501 39.5371C72.5918 38.8342 73.1599 37.858 73.3552 36.7789C73.5506 35.6999 73.3608 34.5865 72.8189 33.6331C72.2771 32.6797 71.4177 31.9469 70.3906 31.5625C69.8671 31.3602 69.3112 31.2544 68.75 31.25H65.625Z" fill="#FFB8A5"/>
<path id="Vector_16" d="M31.25 31.25C30.0068 31.25 28.8145 31.7439 27.9354 32.6229C27.0564 33.502 26.5625 34.6943 26.5625 35.9375C26.5625 37.1807 27.0564 38.373 27.9354 39.2521C28.8145 40.1311 30.0068 40.625 31.25 40.625H34.375V31.25H31.25Z" fill="#FFB8A5"/>
<g id="Group">
<path id="Vector_17" d="M79.7813 64.9688L64.0626 61.2657V60.9375C64.0618 60.6712 63.9929 60.4095 63.8625 60.1772C63.7321 59.945 63.5445 59.7499 63.3175 59.6106C63.0905 59.4713 62.8316 59.3923 62.5655 59.3811C62.2994 59.37 62.0348 59.4271 61.797 59.5469L59.3751 60.75V56.5C61.7183 54.9054 63.6479 52.7754 65.0038 50.2864C66.3597 47.7974 67.103 45.0211 67.172 42.1875H68.7501C70.1101 42.1918 71.4341 41.751 72.5201 40.9322C73.606 40.1135 74.3942 38.9619 74.7643 37.6532C75.1344 36.3446 75.0661 34.9507 74.5698 33.6845C74.0735 32.4183 73.1765 31.3493 72.0157 30.6407L72.6563 21.1407C72.7701 19.4313 72.5317 17.7168 71.9559 16.1033C71.38 14.4899 70.4789 13.0118 69.3085 11.7609C68.1381 10.5099 66.7232 9.51254 65.1516 8.83069C63.58 8.14884 61.8851 7.79698 60.172 7.79691H60.1407L58.9063 7.81254C57.5927 6.33453 55.9802 5.15237 54.1755 4.34428C52.3707 3.53619 50.415 3.12061 48.4376 3.12504H26.5626C26.1482 3.12504 25.7508 3.28966 25.4577 3.58268C25.1647 3.87571 25.0001 4.27313 25.0001 4.68754C24.993 8.61592 26.1334 12.4609 28.2813 15.75C27.5061 17.4195 27.1623 19.2569 27.2813 21.0938L27.9688 30.6407C26.8115 31.3528 25.9185 32.4236 25.4256 33.6899C24.9328 34.9563 24.8671 36.349 25.2385 37.6562C25.61 38.9633 26.3982 40.1134 27.4834 40.9313C28.5686 41.7493 29.8912 42.1904 31.2501 42.1875H32.8126C32.8052 44.4459 33.246 46.6833 34.1097 48.77C34.9733 50.8567 36.2426 52.7512 37.8438 54.3438C38.6945 55.179 39.6262 55.9275 40.6251 56.5782V60.75L38.2032 59.5469C37.9654 59.4271 37.7008 59.37 37.4347 59.3811C37.1686 59.3923 36.9097 59.4713 36.6827 59.6106C36.4557 59.7499 36.2681 59.945 36.1377 60.1772C36.0073 60.4095 35.9384 60.6712 35.9376 60.9375V61.2657L20.2188 64.9688C17.1275 65.6833 14.3707 67.4269 12.4004 69.9139C10.4301 72.4008 9.36339 75.4835 9.3751 78.6563V95.3125C9.3751 95.7269 9.53972 96.1244 9.83274 96.4174C10.1258 96.7104 10.5232 96.875 10.9376 96.875H89.0626C89.477 96.875 89.8744 96.7104 90.1674 96.4174C90.4605 96.1244 90.6251 95.7269 90.6251 95.3125V78.6563C90.6368 75.4835 89.5701 72.4008 87.5998 69.9139C85.6295 67.4269 82.8727 65.6833 79.7813 64.9688ZM60.9376 63.4688V70.9063L53.5001 67.1875L60.9376 63.4688ZM50.0001 65.4375L43.7501 62.3125V58.1875C45.737 58.9652 47.8508 59.3678 49.9845 59.375C50.4063 59.375 50.8126 59.3594 51.2345 59.3282C52.9559 59.203 54.6476 58.813 56.2501 58.1719V62.3125L50.0001 65.4375ZM59.3751 52.5469C57.0924 54.6913 54.1399 55.9827 51.0157 56.2032C49.1333 56.3369 47.2433 56.0904 45.4582 55.4784C43.6731 54.8664 42.0294 53.9013 40.6251 52.6407V48.4375C40.6288 47.1955 41.1239 46.0053 42.0021 45.1271C42.8804 44.2488 44.0705 43.7537 45.3126 43.75H54.6876C55.9297 43.7537 57.1198 44.2488 57.9981 45.1271C58.8763 46.0053 59.3714 47.1955 59.3751 48.4375V52.5469ZM71.8751 35.9375C71.8726 36.7656 71.5426 37.559 70.9571 38.1445C70.3715 38.73 69.5781 39.0601 68.7501 39.0625H67.1876V32.8125H68.7501C69.5781 32.815 70.3715 33.145 70.9571 33.7306C71.5426 34.3161 71.8726 35.1095 71.8751 35.9375ZM28.1876 6.25004H48.4376C50.0761 6.24617 51.6942 6.61231 53.1714 7.32115C54.6486 8.02999 55.9467 9.06323 56.9688 10.3438C57.1117 10.5347 57.2985 10.6884 57.5134 10.7917C57.7282 10.8951 57.9649 10.9451 58.2032 10.9375L60.1563 10.9219H60.1876C61.4711 10.9213 62.7411 11.1846 63.9185 11.6955C65.096 12.2065 66.1558 12.9541 67.0321 13.8919C67.9083 14.8297 68.5824 15.9378 69.0124 17.1471C69.4423 18.3565 69.619 19.6414 69.5313 20.9219L68.9532 29.7032C68.8751 29.7032 68.8126 29.6875 68.7501 29.6875H67.1876C67.1876 27.6155 66.3645 25.6284 64.8994 24.1633C63.4342 22.6981 61.4471 21.875 59.3751 21.875H45.3126C42.5844 21.8708 39.8961 21.22 37.468 19.9761C35.0399 18.7322 32.9411 16.9305 31.3438 14.7188C29.5557 12.2277 28.466 9.30382 28.1876 6.25004ZM32.8126 39.0625H31.2501C30.4213 39.0625 29.6264 38.7333 29.0404 38.1472C28.4543 37.5612 28.1251 36.7663 28.1251 35.9375C28.1251 35.1087 28.4543 34.3139 29.0404 33.7278C29.6264 33.1418 30.4213 32.8125 31.2501 32.8125H32.8126V39.0625ZM32.8126 28.125V29.6875H31.2501C31.172 29.6875 31.1095 29.7032 31.0313 29.7032L30.4063 20.875C30.3476 20.1266 30.4003 19.3736 30.5626 18.6407C32.1279 20.295 33.9609 21.6737 35.9845 22.7188C35.0238 23.2576 34.2237 24.0423 33.6663 24.9923C33.1089 25.9424 32.8143 27.0236 32.8126 28.125ZM37.5001 48.4375V48.625C36.4714 46.6353 35.9355 44.4275 35.9376 42.1875V28.125C35.9401 27.297 36.2701 26.5036 36.8556 25.9181C37.4411 25.3325 38.2346 25.0025 39.0626 25H59.3751C60.6172 25.0037 61.8073 25.4988 62.6856 26.3771C63.5638 27.2553 64.0589 28.4455 64.0626 29.6875V41.7032C64.0663 44.0182 63.5314 46.3024 62.5001 48.375C62.4812 46.3146 61.65 44.345 60.1872 42.8938C58.7244 41.4427 56.7481 40.6274 54.6876 40.625H45.3126C43.2406 40.625 41.2534 41.4481 39.7883 42.9133C38.3232 44.3784 37.5001 46.3655 37.5001 48.4375ZM39.0626 63.4688L46.5001 67.1875L39.0626 70.9063V63.4688ZM23.4376 93.75H12.5001V78.6563C12.492 76.1871 13.3223 73.7883 14.8551 71.8525C16.3879 69.9166 18.5324 68.5584 20.9376 68L23.4376 67.4219V93.75ZM29.6876 93.75H26.5626V66.6719L29.6876 65.9375V93.75ZM67.1876 93.75H32.8126V65.2032L35.9376 64.4688V73.4375C35.9371 73.7031 36.0042 73.9644 36.1327 74.1967C36.2612 74.4291 36.4468 74.6249 36.672 74.7657C36.9211 74.9187 37.2077 74.9998 37.5001 75C37.7445 74.9969 37.9849 74.9381 38.2032 74.8282L50.0001 68.9375L61.797 74.8282C62.0152 74.9381 62.2557 74.9969 62.5001 75C62.7925 74.9998 63.0791 74.9187 63.3282 74.7657C63.5534 74.6249 63.739 74.4291 63.8675 74.1967C63.996 73.9644 64.0631 73.7031 64.0626 73.4375V64.4688L67.1876 65.2032V93.75ZM73.4376 93.75H70.3126V65.9375L73.4376 66.6719V93.75ZM87.5001 93.75H76.5626V67.4219L79.0626 68C81.4678 68.5584 83.6123 69.9166 85.1451 71.8525C86.6778 73.7883 87.5081 76.1871 87.5001 78.6563V93.75Z" fill="#231F20"/>
<path id="Vector_18" d="M56.25 37.5C56.6644 37.5 57.0618 37.3354 57.3549 37.0424C57.6479 36.7493 57.8125 36.3519 57.8125 35.9375V34.375C57.8125 33.9606 57.6479 33.5632 57.3549 33.2701C57.0618 32.9771 56.6644 32.8125 56.25 32.8125C55.8356 32.8125 55.4382 32.9771 55.1451 33.2701C54.8521 33.5632 54.6875 33.9606 54.6875 34.375V35.9375C54.6875 36.3519 54.8521 36.7493 55.1451 37.0424C55.4382 37.3354 55.8356 37.5 56.25 37.5Z" fill="#231F20"/>
<path id="Vector_19" d="M55.5275 49.2829C55.7046 49.1791 55.8595 49.0414 55.9834 48.8777C56.1072 48.714 56.1977 48.5275 56.2495 48.3289C56.3012 48.1303 56.3134 47.9234 56.2853 47.7201C56.2571 47.5167 56.1892 47.3209 56.0853 47.1438C55.9815 46.9668 55.8438 46.8119 55.6801 46.688C55.5164 46.5641 55.33 46.4737 55.1313 46.4219C54.9327 46.3701 54.7258 46.358 54.5225 46.3861C54.3192 46.4143 54.1234 46.4822 53.9463 46.586C52.7556 47.2826 51.4018 47.6518 50.0223 47.6562C48.6428 47.6606 47.2867 47.3 46.0916 46.611C45.9137 46.501 45.7156 46.4278 45.5089 46.3957C45.3022 46.3637 45.0912 46.3735 44.8883 46.4245C44.6855 46.4755 44.495 46.5668 44.328 46.6928C44.1611 46.8188 44.0212 46.9771 43.9166 47.1582C43.8119 47.3393 43.7447 47.5396 43.719 47.7471C43.6932 47.9547 43.7093 48.1653 43.7664 48.3665C43.8236 48.5677 43.9205 48.7554 44.0515 48.9185C44.1825 49.0815 44.3449 49.2166 44.5291 49.3157C46.2025 50.2804 48.1012 50.7854 50.0327 50.7796C51.9643 50.7739 53.8599 50.2575 55.5275 49.2829Z" fill="#FFBCAB"/>
<path id="Vector_20" d="M43.75 37.5C44.1644 37.5 44.5618 37.3354 44.8549 37.0424C45.1479 36.7493 45.3125 36.3519 45.3125 35.9375V34.375C45.3125 33.9606 45.1479 33.5632 44.8549 33.2701C44.5618 32.9771 44.1644 32.8125 43.75 32.8125C43.3356 32.8125 42.9382 32.9771 42.6451 33.2701C42.3521 33.5632 42.1875 33.9606 42.1875 34.375V35.9375C42.1875 36.3519 42.3521 36.7493 42.6451 37.0424C42.9382 37.3354 43.3356 37.5 43.75 37.5Z" fill="#231F20"/>
<path id="Vector_21" d="M50 73.4375C49.5856 73.4375 49.1882 73.6021 48.8951 73.8951C48.6021 74.1882 48.4375 74.5856 48.4375 75V76.5625C48.4375 76.9769 48.6021 77.3743 48.8951 77.6674C49.1882 77.9604 49.5856 78.125 50 78.125C50.4144 78.125 50.8118 77.9604 51.1049 77.6674C51.3979 77.3743 51.5625 76.9769 51.5625 76.5625V75C51.5625 74.5856 51.3979 74.1882 51.1049 73.8951C50.8118 73.6021 50.4144 73.4375 50 73.4375Z" fill="#231F20"/>
<path id="Vector_22" d="M50 81.25C49.5856 81.25 49.1882 81.4146 48.8951 81.7076C48.6021 82.0007 48.4375 82.3981 48.4375 82.8125V84.375C48.4375 84.7894 48.6021 85.1868 48.8951 85.4799C49.1882 85.7729 49.5856 85.9375 50 85.9375C50.4144 85.9375 50.8118 85.7729 51.1049 85.4799C51.3979 85.1868 51.5625 84.7894 51.5625 84.375V82.8125C51.5625 82.3981 51.3979 82.0007 51.1049 81.7076C50.8118 81.4146 50.4144 81.25 50 81.25Z" fill="#231F20"/>
<path id="Vector_23" d="M51.5625 92.1875V90.625C51.5625 90.2106 51.3979 89.8132 51.1049 89.5201C50.8118 89.2271 50.4144 89.0625 50 89.0625C49.5856 89.0625 49.1882 89.2271 48.8951 89.5201C48.6021 89.8132 48.4375 90.2106 48.4375 90.625V92.1875C48.4375 92.6019 48.6021 92.9993 48.8951 93.2924C49.1882 93.5854 49.5856 93.75 50 93.75C50.4144 93.75 50.8118 93.5854 51.1049 93.2924C51.3979 92.9993 51.5625 92.6019 51.5625 92.1875Z" fill="#231F20"/>
</g>
</g>
</g>
</svg>
