<svg width="100" height="100" viewBox="0 0 100 100" fill="none" xmlns="http://www.w3.org/2000/svg">
<g id="protected 1">
<g id="Protect package">
<path id="Vector" d="M82.8125 26.5625H4.6875V89.0625H82.8125V26.5625Z" fill="#FFD200"/>
<path id="Vector_2" d="M4.6875 89.0625H82.8125V26.5625C82.8125 61.1078 47.8703 89.0625 4.6875 89.0625Z" fill="#FFD200"/>
<path id="Vector_3" d="M82.8125 26.5625L71.875 4.6875H48.4375L51.5625 26.5625H82.8125Z" fill="#FFD200"/>
<path id="Vector_4" d="M39.0625 4.6875H15.625L4.6875 26.5625H35.9375L39.0625 4.6875Z" fill="#FFD200"/>
<path id="Vector_5" d="M51.5625 26.5625H35.9375V51.5625H51.5625V26.5625Z" fill="#F3F9FF"/>
<path id="Vector_6" d="M51.5625 26.5625L48.4375 4.6875H39.0625L35.9375 26.5625H51.5625Z" fill="#F3F9FF"/>
<path id="Vector_7" d="M76.5625 51.5625L57.8125 57.8125V66.0937C57.8125 71.2384 59.0826 76.3034 61.5102 80.8393C63.9377 85.3752 67.4475 89.2416 71.7281 92.0953L76.5625 95.3125L81.3969 92.0891C85.6766 89.2359 89.1859 85.3705 91.6134 80.8358C94.0408 76.3011 95.3115 71.2373 95.3125 66.0937V57.8125L76.5625 51.5625Z" fill="#F3F9FF"/>
<path id="Vector_8" d="M59.375 87.5H6.25V28.125H34.375V51.5625C34.375 51.9769 34.5396 52.3743 34.8326 52.6674C35.1257 52.9604 35.5231 53.125 35.9375 53.125H51.5625C51.9769 53.125 52.3743 52.9604 52.6674 52.6674C52.9604 52.3743 53.125 51.9769 53.125 51.5625V28.125H81.25V47.5312C81.25 47.9457 81.4146 48.3431 81.7076 48.6361C82.0007 48.9291 82.3981 49.0938 82.8125 49.0938C83.2269 49.0938 83.6243 48.9291 83.9174 48.6361C84.2104 48.3431 84.375 47.9457 84.375 47.5312V26.5625C84.375 26.5422 84.3641 26.525 84.3641 26.5063C84.3575 26.3417 84.3248 26.1793 84.2672 26.025C84.2531 25.9906 84.2453 25.9563 84.2313 25.9219C84.2172 25.8875 84.2203 25.8828 84.2109 25.8641L73.2734 3.98906C73.1436 3.72932 72.944 3.51089 72.697 3.35826C72.45 3.20564 72.1654 3.12486 71.875 3.125H15.625C15.3346 3.12486 15.05 3.20564 14.803 3.35826C14.556 3.51089 14.3564 3.72932 14.2266 3.98906L3.28906 25.8641C3.27969 25.8828 3.27813 25.9031 3.26875 25.9219C3.25938 25.9406 3.24688 25.9906 3.23281 26.025C3.17535 26.1788 3.14265 26.3407 3.13594 26.5047C3.13594 26.525 3.125 26.5422 3.125 26.5625V89.0625C3.125 89.4769 3.28962 89.8743 3.58265 90.1674C3.87567 90.4604 4.2731 90.625 4.6875 90.625H59.375C59.7894 90.625 60.1868 90.4604 60.4799 90.1674C60.7729 89.8743 60.9375 89.4769 60.9375 89.0625C60.9375 88.6481 60.7729 88.2507 60.4799 87.9576C60.1868 87.6646 59.7894 87.5 59.375 87.5ZM50 50H37.5V28.125H50V50ZM80.2844 25H52.9188L50.2391 6.25H70.9094L80.2844 25ZM47.0828 6.25L49.7609 25H37.7391L40.4172 6.25H47.0828ZM16.5906 6.25H37.2609L34.5812 25H7.21562L16.5906 6.25Z" fill="black"/>
<path id="Vector_9" d="M26.5625 71.875H14.0625C13.6481 71.875 13.2507 72.0396 12.9576 72.3326C12.6646 72.6257 12.5 73.0231 12.5 73.4375C12.5 73.8519 12.6646 74.2493 12.9576 74.5424C13.2507 74.8354 13.6481 75 14.0625 75H26.5625C26.9769 75 27.3743 74.8354 27.6674 74.5424C27.9604 74.2493 28.125 73.8519 28.125 73.4375C28.125 73.0231 27.9604 72.6257 27.6674 72.3326C27.3743 72.0396 26.9769 71.875 26.5625 71.875Z" fill="black"/>
<path id="Vector_10" d="M26.5625 78.125H14.0625C13.6481 78.125 13.2507 78.2896 12.9576 78.5826C12.6646 78.8757 12.5 79.2731 12.5 79.6875C12.5 80.1019 12.6646 80.4993 12.9576 80.7924C13.2507 81.0854 13.6481 81.25 14.0625 81.25H26.5625C26.9769 81.25 27.3743 81.0854 27.6674 80.7924C27.9604 80.4993 28.125 80.1019 28.125 79.6875C28.125 79.2731 27.9604 78.8757 27.6674 78.5826C27.3743 78.2896 26.9769 78.125 26.5625 78.125Z" fill="black"/>
<path id="Vector_11" d="M26.5625 65.625H14.0625C13.6481 65.625 13.2507 65.7896 12.9576 66.0826C12.6646 66.3757 12.5 66.7731 12.5 67.1875C12.5 67.6019 12.6646 67.9993 12.9576 68.2924C13.2507 68.5854 13.6481 68.75 14.0625 68.75H26.5625C26.9769 68.75 27.3743 68.5854 27.6674 68.2924C27.9604 67.9993 28.125 67.6019 28.125 67.1875C28.125 66.7731 27.9604 66.3757 27.6674 66.0826C27.3743 65.7896 26.9769 65.625 26.5625 65.625Z" fill="black"/>
<path id="Vector_12" d="M35.9375 65.625H32.8125C32.3981 65.625 32.0007 65.7896 31.7076 66.0826C31.4146 66.3757 31.25 66.7731 31.25 67.1875C31.25 67.6019 31.4146 67.9993 31.7076 68.2924C32.0007 68.5854 32.3981 68.75 32.8125 68.75H35.9375C36.3519 68.75 36.7493 68.5854 37.0424 68.2924C37.3354 67.9993 37.5 67.6019 37.5 67.1875C37.5 66.7731 37.3354 66.3757 37.0424 66.0826C36.7493 65.7896 36.3519 65.625 35.9375 65.625Z" fill="black"/>
<path id="Vector_13" d="M35.9375 71.875H32.8125C32.3981 71.875 32.0007 72.0396 31.7076 72.3326C31.4146 72.6257 31.25 73.0231 31.25 73.4375C31.25 73.8519 31.4146 74.2493 31.7076 74.5424C32.0007 74.8354 32.3981 75 32.8125 75H35.9375C36.3519 75 36.7493 74.8354 37.0424 74.5424C37.3354 74.2493 37.5 73.8519 37.5 73.4375C37.5 73.0231 37.3354 72.6257 37.0424 72.3326C36.7493 72.0396 36.3519 71.875 35.9375 71.875Z" fill="black"/>
<path id="Vector_14" d="M35.9375 78.125H32.8125C32.3981 78.125 32.0007 78.2896 31.7076 78.5826C31.4146 78.8757 31.25 79.2731 31.25 79.6875C31.25 80.1019 31.4146 80.4993 31.7076 80.7924C32.0007 81.0854 32.3981 81.25 32.8125 81.25H35.9375C36.3519 81.25 36.7493 81.0854 37.0424 80.7924C37.3354 80.4993 37.5 80.1019 37.5 79.6875C37.5 79.2731 37.3354 78.8757 37.0424 78.5826C36.7493 78.2896 36.3519 78.125 35.9375 78.125Z" fill="black"/>
<path id="Vector_15" d="M95.8063 56.3296L77.0563 50.0796C76.7358 49.9728 76.3893 49.9728 76.0688 50.0796L57.3188 56.3296C57.0075 56.4332 56.7368 56.6323 56.5449 56.8984C56.3531 57.1646 56.2499 57.4843 56.25 57.8124V66.0936C56.2453 71.4958 57.577 76.8153 60.1266 81.578C62.6761 86.3408 66.3644 90.3988 70.8625 93.3905L75.6953 96.6124C75.9521 96.7837 76.2538 96.8751 76.5625 96.8751C76.8712 96.8751 77.1729 96.7837 77.4297 96.6124L82.2625 93.3905C86.7607 90.3988 90.4489 86.3408 92.9984 81.578C95.548 76.8153 96.8798 71.4958 96.875 66.0936V57.8124C96.8751 57.4843 96.7719 57.1646 96.5801 56.8984C96.3883 56.6323 96.1175 56.4332 95.8063 56.3296ZM93.75 66.0936C93.7555 70.9821 92.5512 75.796 90.2444 80.106C87.9377 84.416 84.6003 88.0882 80.5297 90.7952L76.5625 93.4374L72.5953 90.7921C68.5252 88.0854 65.188 84.4137 62.8813 80.1042C60.5746 75.7948 59.37 70.9816 59.375 66.0936V58.939L76.5625 53.2093L93.75 58.939V66.0936Z" fill="black"/>
<path id="Vector_16" d="M76.63 87.7563C76.7438 87.927 76.8902 88.0736 77.0607 88.1878C77.2313 88.302 77.4226 88.3814 77.6239 88.4216C77.8251 88.4618 78.0323 88.4619 78.2336 88.422C78.435 88.3821 78.6264 88.303 78.7971 88.1891C84.4015 84.4683 88.3775 78.7519 89.9159 72.2031C90.011 71.7997 89.9419 71.375 89.7239 71.0225C89.5059 70.67 89.1568 70.4185 88.7534 70.3234C88.35 70.2283 87.9253 70.2974 87.5728 70.5154C87.2203 70.7334 86.9688 71.0825 86.8737 71.4859C85.5171 77.2641 82.0085 82.3077 77.0628 85.5891C76.892 85.7029 76.7454 85.8493 76.6312 86.0199C76.5171 86.1904 76.4376 86.3818 76.3974 86.583C76.3573 86.7843 76.3571 86.9915 76.397 87.1928C76.4369 87.3941 76.516 87.5856 76.63 87.7563Z" fill="black"/>
<path id="Vector_17" d="M89.0625 67.6562C89.4769 67.6562 89.8743 67.4916 90.1674 67.1986C90.4604 66.9055 90.625 66.5081 90.625 66.0937V63.8796C90.625 63.4652 90.4604 63.0678 90.1674 62.7748C89.8743 62.4818 89.4769 62.3171 89.0625 62.3171C88.6481 62.3171 88.2507 62.4818 87.9576 62.7748C87.6646 63.0678 87.5 63.4652 87.5 63.8796V66.0937C87.5 66.5081 87.6646 66.9055 87.9576 67.1986C88.2507 67.4916 88.6481 67.6562 89.0625 67.6562Z" fill="black"/>
</g>
</g>
</svg>
