<svg width="60" height="60" viewBox="0 0 60 60" fill="none" xmlns="http://www.w3.org/2000/svg">
<g id="Group 9200">
<rect id="Rectangle 628" width="60" height="60" rx="12" fill="#FFD200"/>
<path id="Subtract" fill-rule="evenodd" clip-rule="evenodd" d="M26.285 22H34.285C35.547 22 36.57 23.023 36.57 24.285V35.715C36.57 36.977 35.547 38 34.285 38H26.285C25.023 38 24 36.977 24 35.715V24.285C24 23.023 25.023 22 26.285 22ZM27.2852 24.2849H33.2802C33.8324 24.2849 34.2802 24.7326 34.2802 25.2849V26.7049C34.2802 27.2572 33.8324 27.7049 33.2802 27.7049H27.2852C26.7329 27.7049 26.2852 27.2572 26.2852 26.7049V25.2849C26.2852 24.7326 26.7329 24.2849 27.2852 24.2849ZM28.1755 29.4299H27.8555C27.3032 29.4299 26.8555 29.8776 26.8555 30.4299V30.7499C26.8555 31.3022 27.3032 31.7499 27.8555 31.7499H28.1755C28.7278 31.7499 29.1755 31.3022 29.1755 30.7499V30.4299C29.1755 29.8776 28.7278 29.4299 28.1755 29.4299ZM32.4297 29.43H32.7497C33.302 29.43 33.7497 29.8777 33.7497 30.43V30.75C33.7497 31.3023 33.302 31.75 32.7497 31.75H32.4297C31.8774 31.75 31.4297 31.3023 31.4297 30.75V30.43C31.4297 29.8777 31.8774 29.43 32.4297 29.43ZM32.7497 33.43H32.4297C31.8774 33.43 31.4297 33.8777 31.4297 34.43V34.75C31.4297 35.3023 31.8774 35.75 32.4297 35.75H32.7497C33.302 35.75 33.7497 35.3023 33.7497 34.75V34.43C33.7497 33.8777 33.302 33.43 32.7497 33.43ZM27.8555 33.4299H28.1755C28.7278 33.4299 29.1755 33.8776 29.1755 34.4299V34.7499C29.1755 35.3022 28.7278 35.7499 28.1755 35.7499H27.8555C27.3032 35.7499 26.8555 35.3022 26.8555 34.7499V34.4299C26.8555 33.8776 27.3032 33.4299 27.8555 33.4299Z" fill="black"/>
</g>
</svg>
