<svg width="26" height="32" viewBox="0 0 26 32" fill="none" xmlns="http://www.w3.org/2000/svg">
<path fill-rule="evenodd" clip-rule="evenodd" d="M4.57 0H20.57C23.0939 0 25.14 2.04606 25.14 4.57V27.43C25.14 29.954 23.0939 32 20.57 32H4.57C2.04606 32 0 29.954 0 27.43V4.57C0 2.04606 2.04606 0 4.57 0ZM6.57031 4.56995H18.5603C19.6649 4.56995 20.5603 5.46538 20.5603 6.56995V9.40995C20.5603 10.5145 19.6649 11.4099 18.5603 11.4099H6.57031C5.46574 11.4099 4.57031 10.5145 4.57031 9.40995V6.56995C4.57031 5.46538 5.46574 4.56995 6.57031 4.56995ZM8.35094 14.86H7.71094C6.60637 14.86 5.71094 15.7554 5.71094 16.86V17.5C5.71094 18.6046 6.60637 19.5 7.71094 19.5H8.35094C9.45551 19.5 10.3509 18.6046 10.3509 17.5V16.86C10.3509 15.7554 9.45551 14.86 8.35094 14.86ZM16.8594 14.86H17.4994C18.604 14.86 19.4994 15.7554 19.4994 16.86V17.5C19.4994 18.6046 18.604 19.5 17.4994 19.5H16.8594C15.7548 19.5 14.8594 18.6046 14.8594 17.5V16.86C14.8594 15.7554 15.7548 14.86 16.8594 14.86ZM17.4994 22.86H16.8594C15.7548 22.86 14.8594 23.7554 14.8594 24.86V25.5C14.8594 26.6046 15.7548 27.5 16.8594 27.5H17.4994C18.604 27.5 19.4994 26.6046 19.4994 25.5V24.86C19.4994 23.7554 18.604 22.86 17.4994 22.86ZM7.71094 22.86H8.35094C9.45551 22.86 10.3509 23.7554 10.3509 24.86V25.5C10.3509 26.6046 9.45551 27.5 8.35094 27.5H7.71094C6.60637 27.5 5.71094 26.6046 5.71094 25.5V24.86C5.71094 23.7554 6.60637 22.86 7.71094 22.86Z" fill="black"/>
</svg>
