<svg width="49" height="49" viewBox="0 0 49 49" fill="none" xmlns="http://www.w3.org/2000/svg">
<path d="M36.0677 34.1841L25.9251 24.0416L36.0677 13.899C36.5864 13.3803 36.5864 12.5394 36.0677 12.0208C35.549 11.5021 34.7081 11.5021 34.1894 12.0208L24.0469 22.1633L13.9043 12.0208C13.3856 11.5021 12.5447 11.5021 12.0261 12.0208C11.5074 12.5394 11.5074 13.3803 12.0261 13.899L22.1686 24.0416L12.0261 34.1841C11.5074 34.7028 11.5074 35.5437 12.0261 36.0624C12.5447 36.5811 13.3856 36.5811 13.9043 36.0624L24.0469 25.9198L34.1894 36.0624C34.7081 36.5811 35.549 36.5811 36.0677 36.0624C36.5864 35.5437 36.5864 34.7028 36.0677 34.1841Z" fill="white"/>
</svg>
