<svg width="166" height="68" viewBox="0 0 166 68" fill="none" xmlns="http://www.w3.org/2000/svg">
<rect width="68" height="68" rx="17" fill="#2D2D2D"/>
<path fill-rule="evenodd" clip-rule="evenodd" d="M47.7663 21.7782C49.3236 22.2064 50.55 23.4681 50.9662 25.0704C51.7225 27.9742 51.7225 34.0332 51.7225 34.0332C51.7225 34.0332 51.7225 40.092 50.9662 42.9961C50.55 44.5983 49.3236 45.86 47.7663 46.2884C44.9443 47.0664 33.6269 47.0664 33.6269 47.0664C33.6269 47.0664 22.3095 47.0664 19.4872 46.2884C17.9299 45.86 16.7036 44.5983 16.2874 42.9961C15.5312 40.092 15.5312 34.0332 15.5312 34.0332C15.5312 34.0332 15.5312 27.9742 16.2874 25.0704C16.7036 23.4681 17.9299 22.2064 19.4872 21.7782C22.3095 21 33.6269 21 33.6269 21C33.6269 21 44.9443 21 47.7663 21.7782ZM30.2339 28.9326V40.2656L39.2818 34.5993L30.2339 28.9326Z" fill="black"/>
<rect x="98" width="68" height="68" rx="17" fill="#2D2D2D"/>
<path d="M138.146 17H124.432C118.859 17 114.324 21.5437 114.324 27.1288V40.8712C114.324 46.4562 118.859 51 124.432 51H138.146C143.719 51 148.254 46.4562 148.254 40.8712V27.1288C148.253 21.5437 143.719 17 138.146 17ZM144.84 40.8712C144.84 44.5761 141.843 47.5796 138.146 47.5796H124.432C120.735 47.5796 117.738 44.5761 117.738 40.8712V27.1288C117.738 23.4238 120.735 20.4204 124.432 20.4204H138.146C141.843 20.4204 144.84 23.4238 144.84 27.1288V40.8712Z" fill="black"/>
<path d="M131.291 25.2061C126.452 25.2061 122.516 29.1508 122.516 33.9995C122.516 38.8482 126.452 42.793 131.291 42.793C136.13 42.793 140.066 38.8482 140.066 33.9995C140.066 29.1507 136.13 25.2061 131.291 25.2061ZM131.291 39.3727C128.33 39.3727 125.929 36.9671 125.929 33.9995C125.929 31.032 128.33 28.6264 131.291 28.6264C134.252 28.6264 136.653 31.032 136.653 33.9995C136.653 36.967 134.252 39.3727 131.291 39.3727Z" fill="black"/>
<path d="M140.079 27.3809C141.241 27.3809 142.182 26.4376 142.182 25.2739C142.182 24.1103 141.241 23.167 140.079 23.167C138.918 23.167 137.977 24.1103 137.977 25.2739C137.977 26.4376 138.918 27.3809 140.079 27.3809Z" fill="black"/>
</svg>
