<svg width="34" height="34" viewBox="0 0 34 34" fill="none" xmlns="http://www.w3.org/2000/svg">
<rect width="34" height="34" rx="17" fill="#2D2D2D"/>
<mask id="mask0_347_1626" style="mask-type:alpha" maskUnits="userSpaceOnUse" x="7" y="7" width="20" height="20">
<circle cx="17" cy="17" r="10" fill="#C4C4C4"/>
</mask>
<g mask="url(#mask0_347_1626)">
<circle cx="17" cy="17" r="10" fill="black"/>
<path fill-rule="evenodd" clip-rule="evenodd" d="M11.5858 12.5858C11 13.1716 11 14.1144 11 16V17.3333C11 19.219 11 20.1618 11.5858 20.7475C12.1716 21.3333 13.1144 21.3333 15 21.3333H19C20.8856 21.3333 21.8284 21.3333 22.4142 20.7475C23 20.1618 23 19.219 23 17.3333V16C23 14.1144 23 13.1716 22.4142 12.5858C21.8284 12 20.8856 12 19 12H15C13.1144 12 12.1716 12 11.5858 12.5858ZM13.3698 14.112C13.0634 13.9077 12.6495 13.9905 12.4453 14.2969C12.2411 14.6032 12.3238 15.0171 12.6302 15.2214L16.2604 17.6415C16.7083 17.9401 17.2917 17.9401 17.7396 17.6415L21.3698 15.2214C21.6762 15.0171 21.7589 14.6032 21.5547 14.2969C21.3505 13.9905 20.9366 13.9077 20.6302 14.112L17 16.5321L13.3698 14.112Z" fill="#2D2D2D"/>
</g>
</svg>
