<svg width="100" height="100" viewBox="0 0 100 100" fill="none" xmlns="http://www.w3.org/2000/svg">
<g id="map 1">
<g id="Map">
<path id="Vector" d="M35.9375 85.9375L7.8125 95.3125V20.3125L35.9375 10.9375V85.9375Z" fill="#FFD200"/>
<path id="Vector_2" d="M92.1875 85.9375L64.0625 95.3125V23.4375L92.1875 10.9375V85.9375Z" fill="#FFD200"/>
<path id="Vector_3" d="M64.0625 95.3125L35.9375 85.9375V10.9375L64.0625 23.4375V95.3125Z" fill="#FFD200"/>
<path id="Vector_4" d="M54.6875 29.6875H73.4375C74.2663 29.6875 75.0612 29.3583 75.6472 28.7722C76.2333 28.1862 76.5625 27.3913 76.5625 26.5625V7.8125C76.5625 6.9837 76.2333 6.18884 75.6472 5.60279C75.0612 5.01674 74.2663 4.6875 73.4375 4.6875H54.6875C53.8587 4.6875 53.0638 5.01674 52.4778 5.60279C51.8917 6.18884 51.5625 6.9837 51.5625 7.8125V26.5625C51.5625 27.3913 51.8917 28.1862 52.4778 28.7722C53.0638 29.3583 53.8587 29.6875 54.6875 29.6875Z" fill="#F3F9FF"/>
<path id="Vector_5" d="M73.4375 4.6875V21.875C73.4375 22.7038 73.1083 23.4987 72.5222 24.0847C71.9362 24.6708 71.1413 25 70.3125 25H51.5625V26.5625C51.5625 27.3913 51.8917 28.1862 52.4778 28.7722C53.0638 29.3583 53.8587 29.6875 54.6875 29.6875H73.4375C74.2663 29.6875 75.0612 29.3583 75.6472 28.7722C76.2333 28.1862 76.5625 27.3913 76.5625 26.5625V7.8125C76.5625 6.9837 76.2333 6.18884 75.6472 5.60279C75.0612 5.01674 74.2663 4.6875 73.4375 4.6875Z" fill="#F3F9FF"/>
<path id="Vector_6" d="M64.0625 15.625L67.1875 17.1875V4.6875H60.9375V17.1875L64.0625 15.625Z" fill="#F3F9FF"/>
<path id="Vector_7" d="M46.875 76.5625C46.875 82.6094 35.9375 95.3125 35.9375 95.3125C35.9375 95.3125 25 82.6094 25 76.5625C25 73.6617 26.1523 70.8797 28.2035 68.8285C30.2547 66.7773 33.0367 65.625 35.9375 65.625C38.8383 65.625 41.6203 66.7773 43.6715 68.8285C45.7227 70.8797 46.875 73.6617 46.875 76.5625Z" fill="#F3F9FF"/>
<path id="Vector_8" d="M35.9375 78.125C37.6634 78.125 39.0625 76.7259 39.0625 75C39.0625 73.2741 37.6634 71.875 35.9375 71.875C34.2116 71.875 32.8125 73.2741 32.8125 75C32.8125 76.7259 34.2116 78.125 35.9375 78.125Z" fill="#F3F9FF"/>
<g id="Group">
<path id="Vector_9" d="M35.9375 37.5C35.5231 37.5 35.1257 37.3354 34.8326 37.0424C34.5396 36.7493 34.375 36.3519 34.375 35.9375V34.375C34.375 33.9606 34.5396 33.5632 34.8326 33.2701C35.1257 32.9771 35.5231 32.8125 35.9375 32.8125C36.3519 32.8125 36.7493 32.9771 37.0424 33.2701C37.3354 33.5632 37.5 33.9606 37.5 34.375V35.9375C37.5 36.3519 37.3354 36.7493 37.0424 37.0424C36.7493 37.3354 36.3519 37.5 35.9375 37.5Z" fill="#231F20"/>
<path id="Vector_10" d="M35.9375 45.3125C35.5231 45.3125 35.1257 45.1479 34.8326 44.8549C34.5396 44.5618 34.375 44.1644 34.375 43.75V42.1875C34.375 41.7731 34.5396 41.3757 34.8326 41.0826C35.1257 40.7896 35.5231 40.625 35.9375 40.625C36.3519 40.625 36.7493 40.7896 37.0424 41.0826C37.3354 41.3757 37.5 41.7731 37.5 42.1875V43.75C37.5 44.1644 37.3354 44.5618 37.0424 44.8549C36.7493 45.1479 36.3519 45.3125 35.9375 45.3125Z" fill="#231F20"/>
<path id="Vector_11" d="M35.9375 60.9375C35.5231 60.9375 35.1257 60.7729 34.8326 60.4799C34.5396 60.1868 34.375 59.7894 34.375 59.375V57.8125C34.375 57.3981 34.5396 57.0007 34.8326 56.7076C35.1257 56.4146 35.5231 56.25 35.9375 56.25C36.3519 56.25 36.7493 56.4146 37.0424 56.7076C37.3354 57.0007 37.5 57.3981 37.5 57.8125V59.375C37.5 59.7894 37.3354 60.1868 37.0424 60.4799C36.7493 60.7729 36.3519 60.9375 35.9375 60.9375Z" fill="#231F20"/>
<path id="Vector_12" d="M35.9375 53.125C35.5231 53.125 35.1257 52.9604 34.8326 52.6674C34.5396 52.3743 34.375 51.9769 34.375 51.5625V50C34.375 49.5856 34.5396 49.1882 34.8326 48.8951C35.1257 48.6021 35.5231 48.4375 35.9375 48.4375C36.3519 48.4375 36.7493 48.6021 37.0424 48.8951C37.3354 49.1882 37.5 49.5856 37.5 50V51.5625C37.5 51.9769 37.3354 52.3743 37.0424 52.6674C36.7493 52.9604 36.3519 53.125 35.9375 53.125Z" fill="#231F20"/>
<path id="Vector_13" d="M93.0313 9.62187C92.8106 9.48022 92.5578 9.39638 92.2962 9.37809C92.0346 9.35979 91.7726 9.40763 91.5344 9.51719L78.125 15.6859V7.8125C78.125 6.5693 77.6311 5.37701 76.7521 4.49794C75.873 3.61886 74.6807 3.125 73.4375 3.125H54.6875C53.4443 3.125 52.252 3.61886 51.3729 4.49794C50.4939 5.37701 50 6.5693 50 7.8125V15.6859L36.5906 9.51719C36.2301 9.3515 35.8201 9.32916 35.4438 9.45469L7.31875 18.8297C7.00749 18.9334 6.73676 19.1324 6.54493 19.3985C6.35311 19.6647 6.24992 19.9844 6.25 20.3125V95.3125C6.25 95.7269 6.41462 96.1243 6.70765 96.4174C7.00067 96.7104 7.3981 96.875 7.8125 96.875C7.98027 96.8748 8.14695 96.848 8.30625 96.7953L23.9313 91.5922C24.1262 91.5273 24.3064 91.4247 24.4617 91.2902C24.617 91.1557 24.7443 90.992 24.8362 90.8083C24.9282 90.6246 24.9831 90.4246 24.9978 90.2197C25.0125 90.0148 24.9867 89.809 24.9219 89.6141C24.857 89.4191 24.7544 89.2389 24.6199 89.0836C24.4854 88.9283 24.3217 88.8011 24.138 88.7091C23.9543 88.6171 23.7543 88.5622 23.5494 88.5475C23.3445 88.5328 23.1387 88.5586 22.9438 88.6234L9.375 93.1453V21.4391L35.8453 12.6156L50 19.1266V26.5625C50 27.8057 50.4939 28.998 51.3729 29.8771C52.252 30.7561 53.4443 31.25 54.6875 31.25H73.4375C74.6807 31.25 75.873 30.7561 76.7521 29.8771C77.6311 28.998 78.125 27.8057 78.125 26.5625V19.1266L90.625 13.3766V84.8109L64.0625 93.6656L48.9313 88.6266C48.7363 88.5617 48.5305 88.5359 48.3256 88.5506C48.1207 88.5653 47.9207 88.6202 47.737 88.7122C47.5533 88.8042 47.3896 88.9314 47.2551 89.0867C47.1206 89.242 47.018 89.4223 46.9531 89.6172C46.8883 89.8121 46.8625 90.0179 46.8772 90.2228C46.8919 90.4277 46.9468 90.6277 47.0388 90.8114C47.1307 90.9951 47.258 91.1589 47.4133 91.2934C47.5686 91.4279 47.7488 91.5305 47.9438 91.5953L63.5687 96.7984C63.8893 96.9052 64.2357 96.9052 64.5563 96.7984L92.6813 87.4234C92.993 87.3196 93.2641 87.1201 93.456 86.8533C93.6479 86.5866 93.7507 86.2661 93.75 85.9375V10.9375C93.7501 10.6755 93.6843 10.4178 93.5587 10.1879C93.4331 9.95796 93.2517 9.76334 93.0313 9.62187ZM65.625 6.25V14.6594L64.7609 14.2266C64.5441 14.1182 64.3049 14.0618 64.0625 14.0618C63.8201 14.0618 63.5809 14.1182 63.3641 14.2266L62.5 14.6594V6.25H65.625ZM75 26.5625C75 26.9769 74.8354 27.3743 74.5424 27.6674C74.2493 27.9604 73.8519 28.125 73.4375 28.125H54.6875C54.2731 28.125 53.8757 27.9604 53.5826 27.6674C53.2896 27.3743 53.125 26.9769 53.125 26.5625V7.8125C53.125 7.3981 53.2896 7.00067 53.5826 6.70765C53.8757 6.41462 54.2731 6.25 54.6875 6.25H59.375V17.1875C59.3749 17.4539 59.4429 17.7158 59.5725 17.9486C59.7021 18.1813 59.889 18.377 60.1156 18.5171C60.3421 18.6572 60.6007 18.7371 60.8668 18.7491C61.1329 18.7612 61.3977 18.705 61.6359 18.5859L64.0625 17.3719L66.4891 18.5859C66.7273 18.705 66.9921 18.7612 67.2582 18.7491C67.5243 18.7371 67.7829 18.6572 68.0094 18.5171C68.236 18.377 68.4229 18.1813 68.5525 17.9486C68.6822 17.7158 68.7501 17.4539 68.75 17.1875V6.25H73.4375C73.8519 6.25 74.2493 6.41462 74.5424 6.70765C74.8354 7.00067 75 7.3981 75 7.8125V26.5625Z" fill="#231F20"/>
<path id="Vector_14" d="M35.9375 25C35.5231 25 35.1257 25.1646 34.8326 25.4576C34.5396 25.7507 34.375 26.1481 34.375 26.5625V28.125C34.375 28.5394 34.5396 28.9368 34.8326 29.2299C35.1257 29.5229 35.5231 29.6875 35.9375 29.6875C36.3519 29.6875 36.7493 29.5229 37.0424 29.2299C37.3354 28.9368 37.5 28.5394 37.5 28.125V26.5625C37.5 26.1481 37.3354 25.7507 37.0424 25.4576C36.7493 25.1646 36.3519 25 35.9375 25Z" fill="#231F20"/>
<path id="Vector_15" d="M35.9375 17.1875C35.5231 17.1875 35.1257 17.3521 34.8326 17.6451C34.5396 17.9382 34.375 18.3356 34.375 18.75V20.3125C34.375 20.7269 34.5396 21.1243 34.8326 21.4174C35.1257 21.7104 35.5231 21.875 35.9375 21.875C36.3519 21.875 36.7493 21.7104 37.0424 21.4174C37.3354 21.1243 37.5 20.7269 37.5 20.3125V18.75C37.5 18.3356 37.3354 17.9382 37.0424 17.6451C36.7493 17.3521 36.3519 17.1875 35.9375 17.1875Z" fill="#231F20"/>
<path id="Vector_16" d="M75 82.8125H53.125C52.7106 82.8125 52.3132 82.6479 52.0201 82.3549C51.7271 82.0618 51.5625 81.6644 51.5625 81.25C51.5625 80.8356 51.7271 80.4382 52.0201 80.1451C52.3132 79.8521 52.7106 79.6875 53.125 79.6875H75C76.2432 79.6875 77.4355 79.1936 78.3146 78.3146C79.1936 77.4355 79.6875 76.2432 79.6875 75C79.6875 73.7568 79.1936 72.5645 78.3146 71.6854C77.4355 70.8064 76.2432 70.3125 75 70.3125H59.375C57.303 70.3125 55.3159 69.4894 53.8507 68.0243C52.3856 66.5591 51.5625 64.572 51.5625 62.5C51.5625 60.428 52.3856 58.4409 53.8507 56.9757C55.3159 55.5106 57.303 54.6875 59.375 54.6875H76.5625C77.8057 54.6875 78.998 54.1936 79.8771 53.3146C80.7561 52.4355 81.25 51.2432 81.25 50C81.25 48.7568 80.7561 47.5645 79.8771 46.6854C78.998 45.8064 77.8057 45.3125 76.5625 45.3125H67.1875C65.9443 45.3125 64.752 44.8186 63.8729 43.9396C62.9939 43.0605 62.5 41.8682 62.5 40.625V35.9375C62.5 35.5231 62.6646 35.1257 62.9576 34.8326C63.2507 34.5396 63.6481 34.375 64.0625 34.375C64.4769 34.375 64.8743 34.5396 65.1674 34.8326C65.4604 35.1257 65.625 35.5231 65.625 35.9375V40.625C65.625 41.0394 65.7896 41.4368 66.0826 41.7299C66.3757 42.0229 66.7731 42.1875 67.1875 42.1875H76.5625C78.6345 42.1875 80.6216 43.0106 82.0868 44.4757C83.5519 45.9409 84.375 47.928 84.375 50C84.375 52.072 83.5519 54.0591 82.0868 55.5243C80.6216 56.9894 78.6345 57.8125 76.5625 57.8125H59.375C58.1318 57.8125 56.9395 58.3064 56.0604 59.1854C55.1814 60.0645 54.6875 61.2568 54.6875 62.5C54.6875 63.7432 55.1814 64.9355 56.0604 65.8146C56.9395 66.6936 58.1318 67.1875 59.375 67.1875H75C77.072 67.1875 79.0591 68.0106 80.5243 69.4757C81.9894 70.9409 82.8125 72.928 82.8125 75C82.8125 77.072 81.9894 79.0591 80.5243 80.5243C79.0591 81.9894 77.072 82.8125 75 82.8125Z" fill="#231F20"/>
<path id="Vector_17" d="M35.9375 96.875C35.7126 96.875 35.4903 96.8263 35.2859 96.7325C35.0815 96.6387 34.8998 96.5018 34.7531 96.3312C33.5938 94.9859 23.4375 82.9969 23.4375 76.5625C23.4375 73.2473 24.7545 70.0679 27.0987 67.7237C29.4429 65.3795 32.6223 64.0625 35.9375 64.0625C39.2527 64.0625 42.4321 65.3795 44.7763 67.7237C47.1205 70.0679 48.4375 73.2473 48.4375 76.5625C48.4375 82.9969 38.2812 94.9859 37.1219 96.3312C36.9752 96.5018 36.7935 96.6387 36.5891 96.7325C36.3847 96.8263 36.1624 96.875 35.9375 96.875ZM35.9375 67.1875C33.4519 67.19 31.0687 68.1785 29.3111 69.9361C27.5535 71.6937 26.565 74.0769 26.5625 76.5625C26.5625 80.5266 32.5281 88.6812 35.9375 92.8734C39.3469 88.6812 45.3125 80.5219 45.3125 76.5625C45.31 74.0769 44.3215 71.6937 42.5639 69.9361C40.8063 68.1785 38.4231 67.19 35.9375 67.1875Z" fill="#231F20"/>
<path id="Vector_18" d="M35.9375 79.6875C35.0104 79.6875 34.1041 79.4126 33.3333 78.8975C32.5624 78.3825 31.9616 77.6504 31.6068 76.7938C31.252 75.9373 31.1592 74.9948 31.3401 74.0855C31.5209 73.1762 31.9674 72.341 32.6229 71.6854C33.2785 71.0299 34.1137 70.5834 35.023 70.4026C35.9323 70.2217 36.8748 70.3145 37.7313 70.6693C38.5879 71.0241 39.3199 71.6249 39.835 72.3958C40.3501 73.1666 40.625 74.0729 40.625 75C40.625 76.2432 40.1311 77.4355 39.2521 78.3146C38.373 79.1936 37.1807 79.6875 35.9375 79.6875ZM35.9375 73.4375C35.6285 73.4375 35.3264 73.5291 35.0694 73.7008C34.8125 73.8725 34.6122 74.1166 34.4939 74.4021C34.3757 74.6876 34.3447 75.0017 34.405 75.3048C34.4653 75.6079 34.6141 75.8863 34.8326 76.1049C35.0512 76.3234 35.3296 76.4722 35.6327 76.5325C35.9358 76.5928 36.2499 76.5618 36.5354 76.4436C36.821 76.3253 37.065 76.125 37.2367 75.8681C37.4084 75.6111 37.5 75.309 37.5 75C37.5 74.5856 37.3354 74.1882 37.0424 73.8951C36.7493 73.6021 36.3519 73.4375 35.9375 73.4375Z" fill="#231F20"/>
</g>
</g>
</g>
</svg>
