<svg width="16" height="16" viewBox="0 0 16 16" fill="none" xmlns="http://www.w3.org/2000/svg">
<path d="M9.408 8.145C8.99388 8.43027 8.50287 8.58302 8 8.58302C7.49713 8.58302 7.00612 8.43027 6.592 8.145L1.625 4.7585C1.54563 4.99781 1.50347 5.24789 1.5 5.5V10.5C1.50079 11.1628 1.76444 11.7982 2.23311 12.2669C2.70178 12.7356 3.3372 12.9992 4 13H12C12.6628 12.9992 13.2982 12.7356 13.7669 12.2669C14.2356 11.7982 14.4992 11.1628 14.5 10.5V5.5C14.4965 5.24789 14.4544 4.99781 14.375 4.7585L9.408 8.145Z" fill="#0098D4"/>
<path d="M7.15679 7.319C7.40522 7.48999 7.6997 7.58154 8.00129 7.58154C8.30288 7.58154 8.59736 7.48999 8.84579 7.319L13.8893 3.88C13.6571 3.60536 13.368 3.38443 13.042 3.23249C12.716 3.08055 12.3609 3.00123 12.0013 3H4.00128C3.64163 3.00123 3.28654 3.08055 2.96056 3.23249C2.63458 3.38443 2.34549 3.60536 2.11328 3.88L7.15679 7.319Z" fill="#0098D4"/>
</svg>
