<svg width="34" height="34" viewBox="0 0 34 34" fill="none" xmlns="http://www.w3.org/2000/svg">
<rect width="34" height="34" rx="17" fill="#2D2D2D"/>
<mask id="mask0_347_1632" style="mask-type:alpha" maskUnits="userSpaceOnUse" x="7" y="7" width="20" height="20">
<circle cx="17" cy="17" r="10" fill="#C4C4C4"/>
</mask>
<g mask="url(#mask0_347_1632)">
<circle cx="17" cy="17" r="10" fill="black"/>
</g>
<path fill-rule="evenodd" clip-rule="evenodd" d="M16.3292 11V14.2818C15.922 14.2393 15.5241 14.1582 15.1455 14.0405C14.5608 13.8589 14.0394 13.5956 13.6081 13.2721C13.3243 13.0593 13.085 12.8246 12.8922 12.5762C13.8157 11.7183 15.0083 11.146 16.3292 11ZM17.6708 11V14.2818C18.0779 14.2393 18.4759 14.1582 18.8545 14.0405C19.4392 13.8589 19.9605 13.5956 20.3919 13.2721C20.6757 13.0593 20.915 12.8246 21.1078 12.5762C20.1843 11.7183 18.9917 11.146 17.6708 11ZM21.9948 13.6085C21.7608 13.8765 21.493 14.1232 21.1968 14.3453C20.6316 14.7692 19.9699 15.0988 19.2525 15.3217C18.744 15.4796 18.2117 15.5827 17.6708 15.6294V16.329L22.9999 16.329C22.8892 15.328 22.5338 14.4007 21.9948 13.6085ZM23 17.6705L17.6708 17.6705V18.3701C18.2117 18.4167 18.744 18.5198 19.2525 18.6778C19.9699 18.9007 20.6316 19.2303 21.1968 19.6542C21.4931 19.8763 21.7609 20.1231 21.995 20.3912C22.534 19.5989 22.8894 18.6716 23 17.6705ZM21.108 21.4235C20.9152 21.175 20.6758 20.9403 20.3919 20.7274C19.9605 20.4038 19.4392 20.1405 18.8545 19.9589C18.4759 19.8413 18.0779 19.7602 17.6708 19.7176V22.9999C18.9918 22.8539 20.1845 22.2816 21.108 21.4235ZM16.3292 22.9999V19.7176C15.922 19.7602 15.5241 19.8413 15.1455 19.9589C14.5608 20.1405 14.0394 20.4038 13.6081 20.7274C13.3242 20.9403 13.0848 21.175 12.892 21.4235C13.8155 22.2816 15.0081 22.8539 16.3292 22.9999ZM12.005 20.3912C12.2391 20.1231 12.5069 19.8763 12.8032 19.6542C13.3684 19.2303 14.0301 18.9007 14.7475 18.6778C15.256 18.5198 15.7883 18.4167 16.3292 18.3701V17.6705L11 17.6705C11.1106 18.6716 11.466 19.5989 12.005 20.3912ZM11.0001 16.329L16.3292 16.329V15.6294C15.7883 15.5827 15.256 15.4796 14.7475 15.3217C14.0301 15.0988 13.3684 14.7692 12.8032 14.3453C12.507 14.1232 12.2392 13.8765 12.0052 13.6085C11.4662 14.4007 11.1108 15.328 11.0001 16.329Z" fill="#2D2D2D"/>
</svg>
